<!--
  Reference: Noun Project  hand shake by Patrick Straub (ID 2434029).
  Used as visual reference for Participation in AdoptSystemDiagram (canvas fill).
  License: follow Noun Project terms for your use case.
-->
<svg xmlns="http://www.w3.org/2000/svg" viewBox="0 0 44.8 50.8375" aria-hidden="true">
  <title>Handshake</title>
  <g fill="currentColor">
    <path d="M6.08,24.13a.63.63,0,0,1-.45-.19L2.85,21.16C-2.07,16.25,0,9.44,4.27,4.87A18.46,18.46,0,0,1,8.66,1.35C11,.06,17.39-1.39,21.55,2.65L29.91,11a1.87,1.87,0,0,1,.1,2.84c-1.38,1.39-5.05,1.85-7.3-.37l-2.1-2.07c-1.08-1-2.29-.69-4.16-.12-2.13.64-4.78,1.44-7.68-.85a.62.62,0,0,1-.1-.88.63.63,0,0,1,.88-.11c2.39,1.89,4.5,1.25,6.54.63,1.82-.55,3.7-1.11,5.38.41l2.12,2.09a4.41,4.41,0,0,0,5.53.38c.25-.25.41-.55-.09-1.06L20.67,3.55C17,0,11.31,1.3,9.28,2.44A17.15,17.15,0,0,0,5.19,5.73C1.63,9.55-.89,15.66,3.74,20.28l2.78,2.78a.61.61,0,0,1,0,.88A.59.59,0,0,1,6.08,24.13Z"/>
    <path d="M38.6,22.81a.66.66,0,0,1-.45-.18.64.64,0,0,1,0-.89L40.93,19c4.4-4.4,2.59-10.28-1-13.88S30.24-.6,25.63,3.88L23.76,5.74a.63.63,0,0,1-.88-.89L24.75,3c5-4.87,11.89-3.07,16.11,1.22,4,4,6,10.64,1,15.64L39,22.63A.62.62,0,0,1,38.6,22.81Z"/>
    <path d="M7.75,29.58a3,3,0,0,1-2.1-.89,3.5,3.5,0,0,1-.26-4.91L16.15,12.5a.63.63,0,0,1,.91.86L6.3,24.64a2.26,2.26,0,0,0,.22,3.15,1.8,1.8,0,0,0,2.76-.24l5-5.2a.63.63,0,0,1,.89,0,.64.64,0,0,1,0,.89l-5,5.2A3.4,3.4,0,0,1,7.75,29.58Z"/>
    <path d="M11.85,33.37a3.83,3.83,0,0,1-2.62-1.09,3.18,3.18,0,0,1,0-4.73L14.69,22a.63.63,0,0,1,.89,0,.61.61,0,0,1,0,.88l-5.41,5.6a1.93,1.93,0,0,0-.08,2.95,2.18,2.18,0,0,0,3.07.17l5.54-5.69a.63.63,0,0,1,.89,0,.62.62,0,0,1,0,.89l-5.54,5.7A3,3,0,0,1,11.85,33.37Z"/>
    <path d="M16.28,36.77a3.72,3.72,0,0,1-2.54-1.05A3.15,3.15,0,0,1,13.83,31a.64.64,0,0,1,.89,0,.63.63,0,0,1,0,.89,1.91,1.91,0,0,0-.13,2.91,2.15,2.15,0,0,0,3,.12l2.77-2.8a.64.64,0,0,1,.89,0,.62.62,0,0,1,0,.89l-2.77,2.79A3.1,3.1,0,0,1,16.28,36.77Z"/>
    <path d="M24.46,40.67h0a3.17,3.17,0,0,1-2.26-.93l-2.57-2.57a3.19,3.19,0,0,1,0-4.52l.3-.3A3.12,3.12,0,0,1,22,31.42a3.22,3.22,0,0,1,.28-4.22l.3-.29A3.16,3.16,0,0,1,24.76,26a3.14,3.14,0,0,1-.88-2.2,3.19,3.19,0,0,1,.93-2.27l.3-.29a3.15,3.15,0,0,1,2.26-.94h0a3.18,3.18,0,0,1,2.27.94l.69.69a3.14,3.14,0,0,1,.93-2.15l.3-.3a3.17,3.17,0,0,1,2.26-.93h0a3.17,3.17,0,0,1,2.26.93l3.83,3.83a3.2,3.2,0,0,1,0,4.53l-.29.3a3.19,3.19,0,0,1-2.27.93h0a3.65,3.65,0,0,1-.74-.08,3.08,3.08,0,0,1,.06.61,3.19,3.19,0,0,1-.93,2.27l-.3.29a3.21,3.21,0,0,1-3.21.8,3.19,3.19,0,0,1-.9,2.69l-.3.3a3.2,3.2,0,0,1-3.1.82,3.24,3.24,0,0,1,0,.44A3.21,3.21,0,0,1,27,39.45l-.29.29A3.21,3.21,0,0,1,24.46,40.67Zm-3.65-7.43-.29.29a1.94,1.94,0,0,0,0,2.75l2.57,2.57a1.9,1.9,0,0,0,1.37.57h0a1.92,1.92,0,0,0,1.38-.57l.29-.29a1.94,1.94,0,0,0,.57-1.38,1.9,1.9,0,0,0-.57-1.37l-2.57-2.57A1.94,1.94,0,0,0,20.81,33.24Zm4.07-6a2,2,0,0,0-1.38.57l-.29.29a1.94,1.94,0,0,0-.57,1.38,1.9,1.9,0,0,0,.57,1.37L27.39,35a1.94,1.94,0,0,0,2.75,0l.3-.3a1.94,1.94,0,0,0,0-2.75L26.25,27.8A1.91,1.91,0,0,0,24.88,27.23Zm2.49-5.7a1.93,1.93,0,0,0-1.37.56h0l-.3.3a2,2,0,0,0-.56,1.38,1.93,1.93,0,0,0,.56,1.37l6.1,6.1a2,2,0,0,0,2.76,0l.29-.29a1.92,1.92,0,0,0,.57-1.38,1.9,1.9,0,0,0-.57-1.37l-6.1-6.11a2,2,0,0,0-1.38-.56Zm6.45-1.76a1.94,1.94,0,0,0-1.38.57h0l-.29.3A1.9,1.9,0,0,0,31.58,22a1.94,1.94,0,0,0,.57,1.38L36,27.22a1.93,1.93,0,0,0,1.37.56h0a2,2,0,0,0,1.38-.56l.3-.3a2,2,0,0,0,0-2.75l-3.84-3.83A1.9,1.9,0,0,0,33.82,19.77Z"/>
  </g>
</svg>
